<svg width="127" height="34" xmlns="http://www.w3.org/2000/svg" xmlns:xlink="http://www.w3.org/1999/xlink" xml:space="preserve" overflow="hidden"><g transform="translate(-150 -1032)"><g><g><g><g><path d="M6.20287 25.6721C6.20287 25.6569 6.20287 25.6265 6.18769 25.5809L4.56092 19.4084C4.50013 19.1803 4.31768 19.0739 4.10483 19.0739L2.09802 19.0739C1.88519 19.0739 1.70275 19.1803 1.64192 19.4084L0.0152118 25.5809C0 25.6265 0 25.6569 0 25.6721L0 29.4425C0 29.7009 0.197641 29.8986 0.456069 29.8986L1.1098 29.8986C1.36826 29.8986 1.55071 29.7009 1.55071 29.4425L1.55071 26.5083 4.65217 26.5083 4.65217 29.4425C4.65217 29.7009 4.84981 29.8986 5.10826 29.8986L5.74679 29.8986C6.00524 29.8986 6.20288 29.7009 6.20288 29.4425L6.20288 25.6721ZM4.40889 24.9575 1.79396 24.9575 2.919 20.6246 3.28386 20.6246 4.4089 24.9575ZM14.0371 24.6383C14.0371 23.194 12.8665 22.0081 11.4069 22.0081L11.1029 22.0081C10.662 22.0081 10.2515 22.0993 9.88663 22.297 9.81057 22.2058 9.68898 22.145 9.55212 22.145L8.92882 22.145C8.67037 22.145 8.47271 22.3426 8.47271 22.6011L8.47271 32.5439C8.47271 32.8176 8.67037 33 8.92882 33L9.55212 33C9.81057 33 10.0235 32.8176 10.0235 32.5439L10.0235 29.8225C10.3427 29.9745 10.7076 30.0658 11.1029 30.0658L11.4069 30.0658C12.8665 30.0658 14.0371 28.8951 14.0371 27.4356L14.0371 24.6383ZM12.4863 27.4356C12.4863 28.0286 12.0151 28.5151 11.4069 28.5151L11.1029 28.5151C10.5099 28.5151 10.0235 28.0286 10.0235 27.4356L10.0235 24.6383C10.0235 24.0453 10.5099 23.5589 11.1029 23.5589L11.4069 23.5589C12.0151 23.5589 12.4863 24.0453 12.4863 24.6383L12.4863 27.4356ZM22.0157 24.6383C22.0157 23.194 20.8451 22.0081 19.3855 22.0081L19.0815 22.0081C18.6406 22.0081 18.2301 22.0993 17.8652 22.297 17.7893 22.2058 17.6676 22.145 17.5308 22.145L16.9074 22.145C16.649 22.145 16.4513 22.3426 16.4513 22.6011L16.4513 32.5439C16.4513 32.8176 16.649 33 16.9074 33L17.5308 33C17.7893 33 18.0021 32.8176 18.0021 32.5439L18.0021 29.8225C18.3213 29.9745 18.6862 30.0658 19.0815 30.0658L19.3855 30.0658C20.8451 30.0658 22.0157 28.8951 22.0157 27.4356L22.0157 24.6383ZM20.4649 27.4356C20.4649 28.0286 19.9937 28.5151 19.3855 28.5151L19.0815 28.5151C18.4885 28.5151 18.0021 28.0286 18.0021 27.4356L18.0021 24.6383C18.0021 24.0453 18.4885 23.5589 19.0815 23.5589L19.3855 23.5589C19.9937 23.5589 20.4649 24.0453 20.4649 24.6383L20.4649 27.4356ZM30.1722 29.8986C30.4306 29.8986 30.6283 29.7009 30.6283 29.4425L30.6283 28.8039C30.6283 28.5455 30.4306 28.3478 30.1722 28.3478L28.3022 28.3478 28.3022 19.53C28.3022 19.2715 28.1045 19.0739 27.8309 19.0739L25.0487 19.0739C24.7903 19.0739 24.5926 19.2715 24.5926 19.53L24.5926 20.1686C24.5926 20.427 24.7903 20.6246 25.0487 20.6246L26.7514 20.6246 26.7514 28.3478 24.4254 28.3478C24.1669 28.3478 23.9693 28.5455 23.9693 28.8039L23.9693 29.4425C23.9693 29.7009 24.1669 29.8986 24.4254 29.8986L30.1722 29.8986ZM36.9939 19.53C36.9939 19.2715 36.7962 19.0739 36.5378 19.0739L35.3063 19.0739C35.0478 19.0739 34.835 19.2715 34.835 19.53L34.835 20.7767C34.835 21.0351 35.0478 21.2328 35.3063 21.2328L36.5378 21.2328C36.7962 21.2328 36.9939 21.0351 36.9939 20.7767L36.9939 19.53ZM39.0159 28.8192C39.0159 28.5607 38.803 28.3478 38.5598 28.3478L36.857 28.3478 36.857 22.6011C36.857 22.3426 36.6594 22.145 36.4009 22.145L33.6036 22.145C33.3451 22.145 33.1323 22.3426 33.1323 22.6011L33.1323 23.2396C33.1323 23.4981 33.3298 23.6957 33.5884 23.6957L35.3063 23.6957 35.3063 28.3478 32.965 28.3478C32.7065 28.3478 32.5089 28.5455 32.5089 28.8039L32.5089 29.4425C32.5089 29.7009 32.7065 29.8986 32.965 29.8986L38.5598 29.8986C38.8182 29.8986 39.0159 29.7009 39.0159 29.4425L39.0159 28.8192ZM46.5187 24.6383C46.5187 23.194 45.348 22.0081 43.9037 22.0081L43.5692 22.0081C42.1249 22.0081 40.9543 23.194 40.9543 24.6383L40.9543 27.4356C40.9543 28.88 42.1249 30.0658 43.5692 30.0658L43.9037 30.0658C45.1048 30.0658 46.1234 29.2448 46.4426 28.1046 46.5034 27.8765 46.3514 27.5877 46.1082 27.5269L45.5 27.39C45.2568 27.3292 44.9983 27.4661 44.9375 27.7093 44.9223 27.8006 44.6638 28.5151 43.9037 28.5151L43.5692 28.5151C42.9763 28.5151 42.505 28.0286 42.505 27.4356L42.505 26.8123 46.0626 26.8123C46.321 26.8123 46.5187 26.6147 46.5187 26.3562L46.5187 24.6383ZM44.9831 25.2616 42.505 25.2616 42.505 24.6383C42.505 24.0453 42.9763 23.5589 43.5692 23.5589L43.9037 23.5589C44.4966 23.5589 44.9831 24.0453 44.9831 24.6383L44.9831 25.2616ZM54.3711 19.53C54.3711 19.2715 54.1734 19.0739 53.915 19.0739L53.2764 19.0739C53.018 19.0739 52.8203 19.2715 52.8203 19.53L52.8203 22.2362C52.5011 22.0842 52.1362 22.0081 51.7409 22.0081L51.4369 22.0081C49.9774 22.0081 48.8067 23.1787 48.8067 24.6383L48.8067 27.4356C48.8067 28.8648 49.9774 30.0658 51.4369 30.0658L51.7409 30.0658C52.1818 30.0658 52.5923 29.9442 52.9572 29.7465 53.0332 29.8378 53.1548 29.8986 53.2916 29.8986L53.915 29.8986C54.1734 29.8986 54.3711 29.7009 54.3711 29.4425L54.3711 19.53ZM52.8203 27.4356C52.8203 28.0286 52.3338 28.5151 51.7409 28.5151L51.4369 28.5151C50.8287 28.5151 50.3574 28.0286 50.3574 27.4356L50.3574 24.6383C50.3574 24.0453 50.8287 23.5589 51.4369 23.5589L51.7409 23.5589C52.3338 23.5589 52.8203 24.0453 52.8203 24.6383L52.8203 27.4356ZM67.0049 30.0658C68.4644 30.0658 69.635 28.88 69.635 27.4356L69.635 26.9492C69.635 23.6653 65.4541 23.9542 65.4541 22.0081L65.4541 21.5368C65.4541 20.9439 65.9407 20.4574 66.5336 20.4574L66.868 20.4574C67.461 20.4574 67.9475 20.9439 67.9475 21.5368L67.9475 21.8561C67.9475 22.1145 68.1451 22.3122 68.4036 22.3122L69.0421 22.3122C69.3005 22.3122 69.4982 22.1145 69.4982 21.8561L69.4982 21.5368C69.4982 20.0925 68.3124 18.9067 66.868 18.9067L66.5336 18.9067C65.0893 18.9067 63.9035 20.0925 63.9035 21.5368L63.9035 22.0081C63.9035 25.2008 68.0843 24.8359 68.0843 26.9492L68.0843 27.4356C68.0843 28.0286 67.613 28.5151 67.0049 28.5151L66.3968 28.5151C65.7886 28.5151 65.3174 28.0286 65.3174 27.4356L65.3174 27.1012C65.3174 26.8428 65.1197 26.6451 64.8613 26.6451L64.2227 26.6451C63.9643 26.6451 63.7666 26.8428 63.7666 27.1012L63.7666 27.4356C63.7666 28.88 64.9372 30.0658 66.3968 30.0658L67.0049 30.0658ZM77.2822 27.4356C77.2822 27.1772 77.0694 26.9644 76.8261 26.9644L76.1876 26.9644C75.9291 26.9644 75.7315 27.1772 75.7315 27.4356 75.7315 28.0286 75.2602 28.5151 74.6673 28.5151L74.3329 28.5151C73.7399 28.5151 73.2686 28.0286 73.2686 27.4356L73.2686 24.6383C73.2686 24.0453 73.7399 23.5589 74.3329 23.5589L74.6673 23.5589C75.2602 23.5589 75.7315 24.0453 75.7315 24.6383 75.7315 24.912 75.9291 25.0944 76.1876 25.0944L76.8261 25.0944C77.0694 25.0944 77.2822 24.912 77.2822 24.6383 77.2822 23.1787 76.1116 22.0081 74.6673 22.0081L74.3329 22.0081C72.8885 22.0081 71.7179 23.1787 71.7179 24.6383L71.7179 27.4356C71.7179 28.88 72.8885 30.0658 74.3329 30.0658L74.6673 30.0658C76.1116 30.0658 77.2822 28.88 77.2822 27.4356ZM83.6828 19.53C83.6828 19.2715 83.4851 19.0739 83.2267 19.0739L81.9952 19.0739C81.7368 19.0739 81.5239 19.2715 81.5239 19.53L81.5239 20.7767C81.5239 21.0351 81.7368 21.2328 81.9952 21.2328L83.2267 21.2328C83.4851 21.2328 83.6828 21.0351 83.6828 20.7767L83.6828 19.53ZM85.7048 28.8192C85.7048 28.5607 85.492 28.3478 85.2487 28.3478L83.5459 28.3478 83.5459 22.6011C83.5459 22.3426 83.3482 22.145 83.0898 22.145L80.2924 22.145C80.034 22.145 79.8212 22.3426 79.8212 22.6011L79.8212 23.2396C79.8212 23.4981 80.0188 23.6957 80.2773 23.6957L81.9952 23.6957 81.9952 28.3478 79.654 28.3478C79.3954 28.3478 79.1979 28.5455 79.1979 28.8039L79.1979 29.4425C79.1979 29.7009 79.3954 29.8986 79.654 29.8986L85.2487 29.8986C85.5071 29.8986 85.7048 29.7009 85.7048 29.4425L85.7048 28.8192ZM93.1084 24.6383C93.1084 23.194 91.9382 22.0081 90.4937 22.0081L90.1591 22.0081C88.7147 22.0081 87.5445 23.194 87.5445 24.6383L87.5445 27.4356C87.5445 28.88 88.7147 30.0658 90.1591 30.0658L90.4937 30.0658C91.695 30.0658 92.7134 29.2448 93.0325 28.1046 93.0937 27.8765 92.9411 27.5877 92.6979 27.5269L92.0899 27.39C91.8468 27.3292 91.5881 27.4661 91.5277 27.7093 91.5122 27.8006 91.2543 28.5151 90.4937 28.5151L90.1591 28.5151C89.5667 28.5151 89.095 28.0286 89.095 27.4356L89.095 26.8123 92.653 26.8123C92.9109 26.8123 93.1084 26.6147 93.1084 26.3562L93.1084 24.6383ZM91.5734 25.2616 89.095 25.2616 89.095 24.6383C89.095 24.0453 89.5667 23.5589 90.1591 23.5589L90.4937 23.5589C91.087 23.5589 91.5734 24.0453 91.5734 24.6383L91.5734 25.2616ZM100.646 29.8986C100.919 29.8986 101.101 29.7009 101.101 29.4425L101.101 24.6383C101.101 23.194 99.9157 22.0081 98.4713 22.0081L98.1677 22.0081C97.7271 22.0081 97.3166 22.0993 96.951 22.297 96.8751 22.2058 96.7388 22.145 96.6173 22.145L95.9938 22.145C95.7351 22.145 95.5221 22.3426 95.5221 22.6011L95.5221 29.4425C95.5221 29.7009 95.7196 29.8986 95.9783 29.8986L96.6173 29.8986C96.8751 29.8986 97.0726 29.7009 97.0726 29.4425L97.0726 24.6382C97.0726 24.0453 97.5745 23.5589 98.1677 23.5589L98.4713 23.5589C99.0801 23.5589 99.551 24.0453 99.551 24.6382L99.551 29.4425C99.551 29.7009 99.7484 29.8986 100.007 29.8986L100.646 29.8986ZM109.114 27.4356C109.114 27.1772 108.901 26.9644 108.658 26.9644L108.019 26.9644C107.76 26.9644 107.563 27.1772 107.563 27.4356 107.563 28.0286 107.092 28.5151 106.499 28.5151L106.164 28.5151C105.572 28.5151 105.1 28.0286 105.1 27.4356L105.1 24.6383C105.1 24.0453 105.572 23.5589 106.164 23.5589L106.499 23.5589C107.092 23.5589 107.563 24.0453 107.563 24.6383 107.563 24.912 107.76 25.0944 108.019 25.0944L108.658 25.0944C108.901 25.0944 109.114 24.912 109.114 24.6383 109.114 23.1787 107.943 22.0081 106.499 22.0081L106.164 22.0081C104.72 22.0081 103.55 23.1787 103.55 24.6383L103.55 27.4356C103.55 28.88 104.72 30.0658 106.164 30.0658L106.499 30.0658C107.943 30.0658 109.114 28.88 109.114 27.4356ZM116.837 24.6383C116.837 23.194 115.666 22.0081 114.222 22.0081L113.887 22.0081C112.443 22.0081 111.273 23.194 111.273 24.6383L111.273 27.4356C111.273 28.88 112.443 30.0658 113.887 30.0658L114.222 30.0658C115.423 30.0658 116.442 29.2448 116.761 28.1046 116.822 27.8765 116.67 27.5877 116.426 27.5269L115.818 27.39C115.575 27.3292 115.316 27.4661 115.256 27.7093 115.24 27.8006 114.983 28.5151 114.222 28.5151L113.887 28.5151C113.295 28.5151 112.823 28.0286 112.823 27.4356L112.823 26.8123 116.381 26.8123C116.639 26.8123 116.837 26.6147 116.837 26.3562L116.837 24.6383ZM115.302 25.2616 112.823 25.2616 112.823 24.6383C112.823 24.0453 113.295 23.5589 113.887 23.5589L114.222 23.5589C114.815 23.5589 115.302 24.0453 115.302 24.6383L115.302 25.2616ZM124.667 27.5725C124.667 24.9271 120.638 25.5201 120.638 24.4254 120.638 23.9237 121.003 23.5589 121.718 23.5589L121.885 23.5589C122.569 23.5589 122.949 23.9542 122.949 24.5014 122.949 24.7599 123.146 24.9575 123.405 24.9575L124.043 24.9575C124.302 24.9575 124.499 24.7599 124.499 24.5014 124.499 22.9356 123.238 22.0081 121.885 22.0081L121.718 22.0081C120.379 22.0081 119.087 22.8595 119.087 24.4254 119.087 27.0859 123.116 26.4626 123.116 27.5725 123.116 28.0894 122.706 28.5151 122.021 28.5151L121.55 28.5151C120.866 28.5151 120.486 28.0894 120.486 27.5725L120.486 27.4053C120.486 27.1468 120.288 26.9492 120.03 26.9492L119.391 26.9492C119.133 26.9492 118.935 27.1468 118.935 27.4053L118.935 27.5725C118.935 29.1232 120.197 30.0658 121.55 30.0658L122.021 30.0658C123.374 30.0658 124.667 29.1232 124.667 27.5725ZM3.27643 11.1672C4.72072 11.1672 5.89137 9.9814 5.89137 8.53709L5.89137 0.631444C5.89137 0.372991 5.69373 0.175349 5.43527 0.175349L4.81193 0.175349C4.55348 0.175349 4.35584 0.372991 4.35584 0.631444L4.35584 8.53709C4.35584 9.13 3.86935 9.61654 3.27643 9.61654L2.94197 9.61654C2.34903 9.61654 1.86254 9.13 1.86254 8.53709L1.86254 0.631444C1.86254 0.372991 1.6649 0.175349 1.40644 0.175349L0.783105 0.175349C0.524651 0.175349 0.32701 0.372991 0.32701 0.631444L0.32701 8.53709C0.32701 9.9814 1.49763 11.1672 2.94197 11.1672L3.27643 11.1672ZM13.4778 11C13.7514 11 13.9339 10.8024 13.9339 10.5439L13.9339 5.7397C13.9339 4.29541 12.748 3.10952 11.3037 3.10952L10.9997 3.10952C10.5587 3.10952 10.1483 3.20076 9.7834 3.3984 9.70734 3.30717 9.57057 3.24637 9.4489 3.24637L8.82559 3.24637C8.56711 3.24637 8.35426 3.44401 8.35426 3.70247L8.35426 10.5439C8.35426 10.8024 8.55193 11 8.81042 11L9.4489 11C9.70734 11 9.90499 10.8024 9.90499 10.5439L9.90499 5.73969C9.90499 5.14677 10.4067 4.66026 10.9997 4.66026L11.3037 4.66026C11.9118 4.66026 12.3831 5.14677 12.3831 5.73969L12.3831 10.5439C12.3831 10.8024 12.5808 11 12.8392 11L13.4778 11ZM20.3496 0.631444C20.3496 0.372991 20.1519 0.175349 19.8935 0.175349L18.662 0.175349C18.4036 0.175349 18.1908 0.372991 18.1908 0.631444L18.1908 1.87809C18.1908 2.13655 18.4036 2.33419 18.662 2.33419L19.8935 2.33419C20.1519 2.33419 20.3496 2.13655 20.3496 1.87809L20.3496 0.631444ZM22.3716 9.9206C22.3716 9.66216 22.1588 9.44924 21.9155 9.44924L20.2128 9.44924 20.2128 3.70247C20.2128 3.44402 20.0151 3.24638 19.7567 3.24638L16.9592 3.24638C16.7008 3.24638 16.488 3.44402 16.488 3.70247L16.488 4.34102C16.488 4.59945 16.6856 4.79709 16.9441 4.79709L18.662 4.79709 18.662 9.44924 16.3208 9.44924C16.0623 9.44924 15.8647 9.64689 15.8647 9.90534L15.8647 10.5439C15.8647 10.8024 16.0623 11 16.3208 11L21.9155 11C22.1739 11 22.3716 10.8024 22.3716 10.5439L22.3716 9.9206ZM27.0101 11C27.2077 11 27.3597 10.8784 27.4205 10.6959L29.8074 3.86972C29.9291 3.53523 29.701 3.24638 29.3666 3.24638L28.6977 3.24638C28.5304 3.24638 28.3175 3.3528 28.2568 3.55044L26.4628 8.97797 24.6688 3.55044C24.608 3.3528 24.3952 3.24638 24.2279 3.24638L23.5589 3.24638C23.2245 3.24638 22.9964 3.53523 23.118 3.86972L25.505 10.6959C25.5658 10.8784 25.7178 11 25.9155 11L27.0101 11ZM37.2479 5.7397C37.2479 4.29541 36.0773 3.10952 34.6329 3.10952L34.2985 3.10952C32.8542 3.10952 31.6835 4.29541 31.6835 5.7397L31.6835 8.53709C31.6835 9.9814 32.8542 11.1672 34.2985 11.1672L34.6329 11.1672C35.834 11.1672 36.8526 10.3463 37.1719 9.20606 37.2327 8.97797 37.0806 8.68909 36.8374 8.62829L36.2293 8.49146C35.986 8.43067 35.7276 8.56749 35.6668 8.81076 35.6515 8.902 35.3931 9.61654 34.6329 9.61654L34.2985 9.61654C33.7056 9.61654 33.2343 9.13 33.2343 8.5371L33.2343 7.91376 36.7918 7.91376C37.0503 7.91376 37.2479 7.71612 37.2479 7.45766L37.2479 5.73971ZM35.7123 6.36301 33.2343 6.36301 33.2343 5.7397C33.2343 5.14678 33.7056 4.66026 34.2985 4.66026L34.6329 4.66026C35.2259 4.66026 35.7123 5.14678 35.7123 5.7397L35.7123 6.36301ZM44.1517 11C44.4101 11 44.6078 10.8024 44.6078 10.5439L44.6078 9.90534C44.6078 9.64689 44.4101 9.44924 44.1517 9.44924L41.8256 9.44924 41.8256 5.7397C41.8256 5.11636 42.3425 4.66026 42.9202 4.66026L43.2242 4.66026C43.7716 4.66026 44.3037 5.11636 44.3037 5.7397L44.3037 6.81913C44.3037 7.07758 44.5013 7.27523 44.7598 7.27523L45.3983 7.27523C45.6567 7.27523 45.8544 7.07758 45.8544 6.81913L45.8544 5.7397C45.8544 4.35623 44.7445 3.10952 43.2242 3.10952L42.9202 3.10952C41.3999 3.10952 40.2748 4.35623 40.2748 5.7397L40.2748 9.44924 39.4842 9.44924C39.2411 9.44924 39.0281 9.64689 39.0281 9.90534L39.0281 10.5439C39.0281 10.8024 39.2411 11 39.4842 11L44.1517 11ZM53.6992 8.67391C53.6992 6.02855 49.6704 6.6215 49.6704 5.52685 49.6704 5.02515 50.0353 4.66027 50.7498 4.66027L50.917 4.66027C51.6012 4.66027 51.9813 5.05555 51.9813 5.60289 51.9813 5.86134 52.1789 6.05898 52.4374 6.05898L53.0759 6.05898C53.3344 6.05898 53.532 5.86134 53.532 5.60289 53.532 4.03694 52.2702 3.10953 50.917 3.10953L50.7498 3.10953C49.4119 3.10953 48.1197 3.96093 48.1197 5.52685 48.1197 8.18742 52.1485 7.56409 52.1485 8.67391 52.1485 9.1908 51.738 9.61654 51.0539 9.61654L50.5825 9.61654C49.8984 9.61654 49.5183 9.1908 49.5183 8.67391L49.5183 8.50666C49.5183 8.24821 49.3208 8.05057 49.0622 8.05057L48.4237 8.05057C48.1653 8.05057 47.9677 8.24821 47.9677 8.50666L47.9677 8.67391C47.9677 10.2247 49.2295 11.1672 50.5825 11.1672L51.0539 11.1672C52.4069 11.1672 53.6992 10.2247 53.6992 8.67391ZM59.9325 0.631444C59.9325 0.372991 59.7349 0.175349 59.4764 0.175349L58.245 0.175349C57.9866 0.175349 57.7737 0.372991 57.7737 0.631444L57.7737 1.87809C57.7737 2.13655 57.9866 2.33419 58.245 2.33419L59.4764 2.33419C59.7349 2.33419 59.9325 2.13655 59.9325 1.87809L59.9325 0.631444ZM61.9546 9.9206C61.9546 9.66216 61.7417 9.44924 61.4985 9.44924L59.7957 9.44924 59.7957 3.70247C59.7957 3.44402 59.598 3.24638 59.3396 3.24638L56.5422 3.24638C56.2838 3.24638 56.0709 3.44402 56.0709 3.70247L56.0709 4.34102C56.0709 4.59945 56.2686 4.79709 56.527 4.79709L58.245 4.79709 58.245 9.44924 55.9037 9.44924C55.6452 9.44924 55.4476 9.64689 55.4476 9.90534L55.4476 10.5439C55.4476 10.8024 55.6452 11 55.9037 11L61.4985 11C61.7569 11 61.9546 10.8024 61.9546 10.5439L61.9546 9.9206ZM69.4634 8.20263C69.4634 7.94415 69.2658 7.74651 69.0073 7.74651L68.3688 7.74651C68.1103 7.74651 67.9127 7.94415 67.9127 8.20263L67.9127 8.53709C67.9127 9.13 67.4261 9.61654 66.8333 9.61654 66.2252 9.61654 65.7538 9.13 65.7538 8.53709L65.7538 5.11636 68.3688 5.11636C68.6272 5.11636 68.84 4.91872 68.84 4.66026L68.84 4.02174C68.84 3.76329 68.6272 3.56565 68.3688 3.56565L65.7538 3.56565 65.7538 0.631444C65.7538 0.372991 65.5562 0.175349 65.2977 0.175349L64.644 0.175349C64.3703 0.175349 64.2031 0.372991 64.2031 0.631444L64.2031 3.56565 63.4125 3.56565C63.1541 3.56565 62.9564 3.77848 62.9564 4.03694L62.9564 4.64506C62.9564 4.90352 63.1541 5.11637 63.4125 5.11637L64.2031 5.11637 64.2031 8.5371C64.2031 9.99657 65.3738 11.1672 66.8333 11.1672 68.2775 11.1672 69.4634 9.99657 69.4634 8.5371L69.4634 8.20264ZM76.8567 3.83929C76.9327 3.52002 76.7351 3.24638 76.4158 3.24638L75.7925 3.24638C75.5796 3.24638 75.3972 3.3832 75.3515 3.58084L74.1201 8.26342 72.9343 3.56565C72.8887 3.3832 72.691 3.24638 72.4782 3.24638L71.8396 3.24638C71.5204 3.24638 71.3076 3.52002 71.3987 3.85451L73.4056 10.4831C73.2992 10.8175 73.2231 11.1064 73.1471 11.3041 72.9343 11.8817 72.6302 11.9274 72.1133 11.9274L71.4292 11.9274C71.1707 11.9274 70.9731 12.125 70.9731 12.3835L70.9731 13.022C70.9731 13.2805 71.1707 13.4781 71.4292 13.4781L71.7484 13.4781C72.9343 13.4781 74.1506 13.3717 74.6523 11.6842 75.0779 10.2247 76.8567 3.8393 76.8567 3.8393ZM91.3906 5.7397C91.3906 4.29541 90.2204 3.10952 88.7759 3.10952L88.4413 3.10952C86.9969 3.10952 85.8265 4.29541 85.8265 5.7397L85.8265 8.53709C85.8265 9.9814 86.9969 11.1672 88.4413 11.1672L88.7759 11.1672C90.2204 11.1672 91.3906 9.9814 91.3906 8.53709L91.3906 5.7397ZM89.8401 8.53709C89.8401 9.13 89.3692 9.61654 88.7759 9.61654L88.4413 9.61654C87.8489 9.61654 87.3772 9.13 87.3772 8.53709L87.3772 5.7397C87.3772 5.14678 87.8489 4.66026 88.4413 4.66026L88.7759 4.66026C89.3692 4.66026 89.8401 5.14678 89.8401 5.7397L89.8401 8.53709ZM100.443 3.57273 100.443 2.63012C100.443 1.27707 99.5156 0 97.9651 0L97.3563 0C95.8058 0 94.8788 1.27707 94.8788 2.63012L94.8788 3.88493 94.088 3.88493C93.8293 3.88493 93.6318 4.08257 93.6318 4.34102L93.6318 4.97955C93.6318 5.23798 93.8293 5.43564 94.088 5.43564L94.8788 5.43564 94.8788 9.44924 93.9207 9.44924C93.662 9.44924 93.48 9.64689 93.48 9.90534L93.48 10.5439C93.48 10.8024 93.662 11 93.9207 11L98.755 11C99.0137 11 99.2112 10.8024 99.2112 10.5439L99.2112 9.90534C99.2112 9.64689 99.0137 9.44924 98.755 9.44924L96.4293 9.44924 96.4293 5.43564 97.828 5.43564C98.0712 5.43564 98.2842 5.23798 98.2842 4.97955L98.2842 4.34102C98.2842 4.08257 98.0712 3.88493 97.828 3.88493L96.4293 3.88493 96.4293 2.63012C96.4293 1.94602 96.8553 1.55071 97.3718 1.55071L97.9496 1.55071C98.4816 1.55071 98.8921 1.94601 98.8921 2.63012L98.8921 3.57273C98.8921 3.83119 99.0896 4.02883 99.3483 4.02883L99.9864 4.02883C100.245 4.02883 100.443 3.83119 100.443 3.57273Z" fill="#000000" fill-rule="nonzero" fill-opacity="1" transform="matrix(1.00063 0 0 1 151.628 1033)"/></g></g></g></g></g></svg>